<svg width="66" height="64" viewBox="0 0 66 64" fill="none" xmlns="http://www.w3.org/2000/svg">
<rect x="0.5" y="1.5" width="65" height="61.5862" rx="14.5" fill="#1E1E1E" stroke="#453D3D"/>
<rect x="3.91382" y="4.91382" width="58.1724" height="54.7586" rx="11.5" fill="#1E1E1E" stroke="white"/>
<path d="M20.3276 4.96289H29.0639V26.4785C29.0639 26.9473 29.0229 27.4512 28.9409 27.9902C28.8705 28.5293 28.7123 29.0684 28.4662 29.6074C28.2319 30.1348 27.8803 30.6445 27.4116 31.1367C26.9428 31.6289 26.3159 32.0625 25.5307 32.4375C24.7573 32.8125 23.7963 33.1113 22.6479 33.334C21.4995 33.5684 20.1166 33.6855 18.4995 33.6855C16.6948 33.6855 15.1655 33.5684 13.9116 33.334C12.6577 33.1113 11.6205 32.8125 10.8002 32.4375C9.97992 32.0625 9.34125 31.6289 8.88422 31.1367C8.4389 30.6445 8.10492 30.1348 7.88226 29.6074C7.67133 29.0684 7.54242 28.5293 7.49554 27.9902C7.46039 27.4512 7.44281 26.9473 7.44281 26.4785V22.4004H16.1791V28.834H20.3276V4.96289Z" fill="white"/>
<rect x="17.069" y="49.931" width="33" height="2.27586" rx="1" fill="white"/>
</svg>
