<svg width="321" height="319" viewBox="0 0 321 319" fill="none" xmlns="http://www.w3.org/2000/svg">
<rect width="319" height="319" rx="12" fill="#003057"/>
<path d="M60.628 37.496C59.5613 37.1547 58.4307 36.856 57.236 36.6C56.0413 36.3013 54.7187 36.0667 53.268 35.896C51.86 35.6827 50.3667 35.576 48.788 35.576C46.228 35.576 44.052 36.1307 42.26 37.24C40.468 38.3493 38.996 39.7787 37.844 41.528C36.7347 43.2347 35.924 45.1547 35.412 47.288C34.9 49.4213 34.644 51.5333 34.644 53.624C34.644 56.2693 35.0067 58.68 35.732 60.856C36.5 62.9893 37.524 64.824 38.804 66.36C40.1267 67.8533 41.6413 69.0053 43.348 69.816C45.0973 70.6267 46.932 71.032 48.852 71.032C50.644 71.032 52.2867 70.9467 53.78 70.776C55.2733 70.5627 56.5533 70.3493 57.62 70.136C58.8573 69.88 59.9667 69.5813 60.948 69.24L62.036 73.784C60.884 74.168 59.604 74.5093 58.196 74.808C57.0013 75.064 55.6147 75.2987 54.036 75.512C52.4573 75.7253 50.7293 75.832 48.852 75.832C45.4813 75.832 42.516 75.2773 39.956 74.168C37.4387 73.0587 35.3267 71.5227 33.62 69.56C31.956 67.5547 30.6973 65.208 29.844 62.52C28.9907 59.7893 28.564 56.8027 28.564 53.56C28.564 49.848 29.076 46.584 30.1 43.768C31.124 40.9093 32.532 38.52 34.324 36.6C36.116 34.68 38.2493 33.2293 40.724 32.248C43.1987 31.2667 45.908 30.776 48.852 30.776C50.644 30.776 52.308 30.8827 53.844 31.096C55.4227 31.2667 56.852 31.5013 58.132 31.8C59.4547 32.0987 60.6707 32.4187 61.78 32.76L60.628 37.496ZM60.463 27.064L65.583 26.488V46.84C66.863 45.9867 68.1217 45.24 69.359 44.6C70.639 43.96 71.9403 43.4053 73.263 42.936C74.5857 42.424 75.8657 42.168 77.103 42.168C78.8523 42.168 80.303 42.3813 81.455 42.808C82.6497 43.192 83.6097 43.8533 84.335 44.792C85.0603 45.7307 85.5723 46.968 85.871 48.504C86.2123 50.04 86.383 51.96 86.383 54.264V75H81.263V54.84C81.263 53.56 81.2417 52.4293 81.199 51.448C81.1563 50.424 80.9643 49.5707 80.623 48.888C80.3243 48.1627 79.8337 47.608 79.151 47.224C78.511 46.84 77.5937 46.648 76.399 46.648C75.2897 46.648 74.095 46.904 72.815 47.416C71.535 47.8853 70.319 48.44 69.167 49.08C68.015 49.72 66.8203 50.4667 65.583 51.32V75H60.463V27.064ZM106.345 71.48H106.217C105.833 71.7787 105.278 72.184 104.553 72.696C103.827 73.1653 102.995 73.6347 102.057 74.104C101.118 74.5733 100.073 74.9787 98.9205 75.32C97.8112 75.6613 96.6805 75.832 95.5285 75.832C93.9498 75.832 92.6058 75.6187 91.4965 75.192C90.3872 74.808 89.4912 74.1467 88.8085 73.208C88.1258 72.2693 87.6352 71.032 87.3365 69.496C87.0378 67.96 86.8885 66.04 86.8885 63.736V42.808H92.0085V62.968C92.0085 64.248 92.0298 65.4 92.0725 66.424C92.1152 67.448 92.2645 68.3227 92.5205 69.048C92.7765 69.7733 93.1818 70.3493 93.7365 70.776C94.3338 71.16 95.1658 71.352 96.2325 71.352C97.3418 71.352 98.4938 71.1173 99.6885 70.648C100.883 70.1787 101.971 69.6453 102.953 69.048C104.105 68.3653 105.235 67.5973 106.345 66.744V42.808H111.465V70.84C111.507 72.376 111.614 73.7627 111.785 75L106.729 75.512L106.345 71.48ZM112.512 47.992C112.512 47.0107 112.405 45.4747 112.192 43.384L116.928 42.744L117.44 47.416H117.504C118.272 46.4347 119.019 45.5813 119.744 44.856C120.469 44.1307 121.216 43.512 121.984 43C122.795 42.4453 123.563 42.168 124.288 42.168C125.269 42.1253 126.635 42.232 128.384 42.488L127.232 47.416C125.824 47.16 124.843 47.0533 124.288 47.096C123.563 47.096 122.795 47.4373 121.984 48.12C121.173 48.8027 120.469 49.528 119.872 50.296C119.104 51.2347 118.357 52.3013 117.632 53.496V75H112.512V47.992ZM144.721 47.48C143.996 47.3093 142.993 47.1387 141.713 46.968C140.433 46.7547 139.132 46.648 137.809 46.648C135.889 46.648 134.31 47.032 133.073 47.8C131.878 48.568 130.94 49.5707 130.257 50.808C129.574 52.0027 129.105 53.3467 128.849 54.84C128.593 56.2907 128.465 57.72 128.465 59.128C128.465 61.304 128.742 63.1813 129.297 64.76C129.852 66.296 130.577 67.5547 131.473 68.536C132.412 69.5173 133.478 70.2427 134.673 70.712C135.868 71.1387 137.126 71.352 138.449 71.352C139.345 71.352 140.198 71.3093 141.009 71.224C141.862 71.096 142.63 70.968 143.313 70.84C144.038 70.6693 144.721 70.4773 145.361 70.264L146.385 74.552C145.489 74.808 144.657 75.0213 143.889 75.192C143.121 75.3627 142.204 75.512 141.137 75.64C140.113 75.768 139.004 75.832 137.809 75.832C135.462 75.832 133.372 75.5333 131.537 74.936C129.702 74.3387 128.145 73.3787 126.865 72.056C125.628 70.7333 124.668 69.0053 123.985 66.872C123.345 64.7387 123.025 62.136 123.025 59.064C123.025 56.0773 123.43 53.5173 124.241 51.384C125.094 49.208 126.204 47.4587 127.569 46.136C128.934 44.7707 130.492 43.768 132.241 43.128C134.033 42.488 135.889 42.168 137.809 42.168C138.833 42.168 139.814 42.232 140.753 42.36C141.734 42.4453 142.588 42.552 143.313 42.68C144.166 42.8507 144.977 43.0213 145.745 43.192L144.721 47.48ZM144.371 27.064L149.491 26.488V46.84C150.771 45.9867 152.029 45.24 153.267 44.6C154.547 43.96 155.848 43.4053 157.171 42.936C158.493 42.424 159.773 42.168 161.011 42.168C162.76 42.168 164.211 42.3813 165.363 42.808C166.557 43.192 167.517 43.8533 168.243 44.792C168.968 45.7307 169.48 46.968 169.779 48.504C170.12 50.04 170.291 51.96 170.291 54.264V75H165.171V54.84C165.171 53.56 165.149 52.4293 165.107 51.448C165.064 50.424 164.872 49.5707 164.531 48.888C164.232 48.1627 163.741 47.608 163.059 47.224C162.419 46.84 161.501 46.648 160.307 46.648C159.197 46.648 158.003 46.904 156.723 47.416C155.443 47.8853 154.227 48.44 153.075 49.08C151.923 49.72 150.728 50.4667 149.491 51.32V75H144.371V27.064Z" fill="white"/>
<path d="M170.737 99.368C169.713 99.112 168.646 98.8773 167.537 98.664C166.555 98.4507 165.425 98.28 164.145 98.152C162.907 97.9813 161.606 97.896 160.241 97.896C157.083 97.896 154.822 98.3867 153.457 99.368C152.091 100.307 151.409 101.779 151.409 103.784C151.451 105.363 152.027 106.707 153.137 107.816C154.246 108.883 155.633 109.885 157.297 110.824C158.961 111.72 160.774 112.616 162.737 113.512C164.742 114.365 166.577 115.368 168.241 116.52C169.905 117.629 171.291 118.952 172.401 120.488C173.553 121.981 174.129 123.816 174.129 125.992C174.129 128.509 173.574 130.536 172.465 132.072C171.398 133.608 170.033 134.803 168.369 135.656C166.705 136.509 164.87 137.085 162.865 137.384C160.902 137.683 159.025 137.832 157.233 137.832C155.526 137.832 153.969 137.725 152.561 137.512C151.153 137.299 149.937 137.064 148.913 136.808C147.718 136.509 146.63 136.168 145.649 135.784L146.929 130.6C147.91 131.027 148.955 131.389 150.065 131.688C151.046 131.944 152.134 132.179 153.329 132.392C154.566 132.605 155.867 132.712 157.233 132.712C158.897 132.712 160.411 132.605 161.777 132.392C163.185 132.179 164.401 131.837 165.425 131.368C166.449 130.899 167.238 130.28 167.793 129.512C168.39 128.744 168.689 127.805 168.689 126.696C168.646 125.032 168.091 123.688 167.025 122.664C166.001 121.597 164.614 120.595 162.865 119.656C161.158 118.675 159.302 117.736 157.297 116.84C155.334 115.944 153.521 114.92 151.857 113.768C150.193 112.616 148.785 111.251 147.633 109.672C146.523 108.093 145.969 106.131 145.969 103.784C145.969 102.419 146.203 101.075 146.673 99.752C147.142 98.4293 147.931 97.256 149.041 96.232C150.193 95.208 151.665 94.376 153.457 93.736C155.291 93.096 157.553 92.776 160.241 92.776C161.777 92.776 163.227 92.8613 164.593 93.032C166.001 93.16 167.217 93.3093 168.241 93.48C169.435 93.6933 170.566 93.928 171.633 94.184L170.737 99.368ZM167.084 104.808H172.524L178.54 119.336C179.138 120.744 179.671 122.152 180.14 123.56C180.652 124.968 181.1 126.227 181.484 127.336C181.954 128.659 182.359 129.939 182.7 131.176H182.764C183.148 129.939 183.575 128.659 184.044 127.336C184.428 126.227 184.876 124.968 185.388 123.56C185.9 122.152 186.434 120.744 186.988 119.336L192.556 104.808H197.932L182.7 143.208C182.103 144.787 181.314 146.152 180.332 147.304C179.394 148.456 178.476 149.416 177.58 150.184C176.514 151.08 175.404 151.848 174.252 152.488L171.756 148.072C172.652 147.645 173.484 147.112 174.252 146.472C174.935 145.917 175.618 145.213 176.3 144.36C176.983 143.549 177.538 142.568 177.964 141.416L179.948 136.168L167.084 104.808ZM212.145 110.056C210.353 109.501 208.753 109.139 207.345 108.968C205.979 108.755 204.721 108.648 203.569 108.648C202.075 108.648 200.817 109.011 199.793 109.736C198.811 110.461 198.321 111.4 198.321 112.552C198.363 113.576 198.811 114.451 199.665 115.176C200.518 115.901 201.499 116.563 202.609 117.16C203.761 117.715 205.019 118.333 206.385 119.016C207.793 119.699 209.094 120.467 210.289 121.32C211.526 122.173 212.529 123.197 213.297 124.392C214.065 125.587 214.47 127.016 214.513 128.68C214.47 130.472 214.065 131.965 213.297 133.16C212.571 134.312 211.611 135.251 210.417 135.976C209.265 136.659 208.006 137.128 206.641 137.384C205.275 137.683 203.995 137.832 202.801 137.832C201.265 137.832 199.665 137.747 198.001 137.576C196.379 137.405 194.63 137.043 192.753 136.488L193.713 131.88C195.633 132.392 197.382 132.776 198.961 133.032C200.539 133.245 201.841 133.352 202.865 133.352C203.633 133.352 204.379 133.267 205.105 133.096C205.873 132.925 206.555 132.691 207.153 132.392C207.75 132.051 208.219 131.624 208.561 131.112C208.945 130.6 209.137 130.024 209.137 129.384C209.094 128.189 208.689 127.187 207.921 126.376C207.153 125.523 206.15 124.776 204.913 124.136C203.718 123.453 202.417 122.792 201.009 122.152C199.643 121.469 198.342 120.701 197.105 119.848C195.91 118.952 194.907 117.907 194.097 116.712C193.286 115.475 192.881 113.96 192.881 112.168C192.881 110.888 193.201 109.757 193.841 108.776C194.523 107.752 195.377 106.92 196.401 106.28C197.467 105.597 198.619 105.085 199.857 104.744C201.137 104.36 202.374 104.168 203.569 104.168C204.806 104.168 206.193 104.275 207.729 104.488C209.265 104.659 211.035 105 213.041 105.512L212.145 110.056ZM220.592 95.208V104.808H229.872V108.968H220.592V126.056C220.592 127.464 220.614 128.637 220.656 129.576C220.742 130.515 220.891 131.261 221.104 131.816C221.318 132.371 221.616 132.776 222 133.032C222.384 133.245 222.875 133.352 223.472 133.352C225.094 133.309 226.971 132.712 229.104 131.56L230.64 135.464C229.232 136.403 227.91 137.021 226.672 137.32C225.478 137.661 224.283 137.832 223.088 137.832C220.272 137.832 218.288 137.043 217.136 135.464C216.027 133.843 215.472 131.176 215.472 127.464V108.968H209.584V104.808H215.472V95.848L220.592 95.208ZM251.655 136.232C250.673 136.531 249.649 136.787 248.583 137C247.559 137.213 246.407 137.405 245.127 137.576C243.889 137.747 242.588 137.832 241.223 137.832C239.089 137.832 237.105 137.533 235.271 136.936C233.436 136.339 231.836 135.379 230.471 134.056C229.105 132.733 228.017 131.027 227.207 128.936C226.439 126.803 226.055 124.2 226.055 121.128C226.055 118.355 226.439 115.923 227.207 113.832C227.975 111.699 229.02 109.928 230.343 108.52C231.708 107.069 233.287 105.981 235.079 105.256C236.913 104.531 238.897 104.168 241.031 104.168C243.121 104.168 244.935 104.573 246.471 105.384C248.007 106.195 249.265 107.304 250.247 108.712C251.271 110.077 252.017 111.699 252.487 113.576C252.999 115.411 253.255 117.352 253.255 119.4L252.295 122.216H231.623C231.623 123.539 231.793 124.861 232.135 126.184C232.476 127.507 233.052 128.701 233.863 129.768C234.716 130.835 235.804 131.709 237.127 132.392C238.492 133.032 240.177 133.352 242.183 133.352C243.463 133.352 244.636 133.288 245.703 133.16C246.769 132.989 247.687 132.819 248.455 132.648C249.265 132.435 250.012 132.2 250.695 131.944L251.655 136.232ZM247.943 118.12C247.943 117.821 247.879 117.16 247.751 116.136C247.623 115.112 247.324 114.045 246.855 112.936C246.385 111.827 245.66 110.845 244.679 109.992C243.697 109.096 242.396 108.648 240.775 108.648C238.983 108.648 237.511 109.032 236.359 109.8C235.207 110.525 234.289 111.4 233.607 112.424C232.924 113.448 232.455 114.493 232.199 115.56C231.943 116.627 231.815 117.48 231.815 118.12H247.943ZM251.966 110.632C251.966 109.181 251.838 107.432 251.582 105.384L256.382 104.744L257.086 108.776C258.238 107.923 259.368 107.176 260.478 106.536C261.587 105.896 262.782 105.341 264.062 104.872C265.342 104.403 266.643 104.168 267.966 104.168C270.099 104.168 271.784 104.552 273.022 105.32C274.259 106.045 275.176 107.304 275.774 109.096C277.523 107.859 279.336 106.728 281.214 105.704C283.134 104.68 285.118 104.168 287.166 104.168C288.744 104.168 290.088 104.381 291.198 104.808C292.307 105.192 293.203 105.853 293.886 106.792C294.568 107.731 295.059 108.968 295.358 110.504C295.656 112.04 295.806 113.96 295.806 116.264V137H290.686V116.84C290.686 115.56 290.664 114.429 290.622 113.448C290.579 112.424 290.43 111.571 290.174 110.888C289.918 110.163 289.491 109.608 288.894 109.224C288.339 108.84 287.528 108.648 286.462 108.648C285.48 108.648 284.542 108.797 283.646 109.096C282.792 109.352 281.896 109.736 280.958 110.248C280.019 110.76 278.568 111.805 276.606 113.384V137H271.486V116.84C271.486 115.56 271.464 114.429 271.422 113.448C271.379 112.424 271.23 111.571 270.974 110.888C270.718 110.163 270.291 109.608 269.694 109.224C269.139 108.84 268.328 108.648 267.262 108.648C266.152 108.648 265 108.883 263.806 109.352C262.611 109.821 261.48 110.376 260.414 111.016C259.347 111.656 258.238 112.403 257.086 113.256V137H251.966V110.632Z" fill="white"/>
<rect x="25.5" y="235.5" width="268" height="62" rx="2.5" fill="#D9D9D9" stroke="#D9D9D9"/>
<path d="M254.538 198.96C264.617 198.96 273.223 200.558 273.223 206.952C273.223 213.344 264.672 215 254.538 215C244.459 215 235.853 213.402 235.853 207.01C235.853 200.616 244.403 198.96 254.538 198.96ZM270.653 195.11C274.506 195.038 278.649 195.568 280.18 195.943C283.423 196.581 285.556 197.882 286.44 199.774C287.187 201.327 287.187 203.128 286.44 204.679C285.088 207.613 280.729 208.554 279.036 208.798C278.686 208.851 278.404 208.546 278.441 208.195C279.307 200.065 272.423 196.21 270.643 195.324C270.566 195.284 270.55 195.224 270.558 195.187C270.564 195.16 270.595 195.118 270.653 195.11ZM238.724 195.111C238.782 195.119 238.811 195.161 238.816 195.185C238.824 195.225 238.808 195.283 238.734 195.325C236.951 196.211 230.068 200.066 230.933 208.193C230.97 208.548 230.691 208.849 230.341 208.799C228.647 208.555 224.289 207.614 222.937 204.68C222.188 203.127 222.188 201.328 222.937 199.775C223.821 197.883 225.951 196.582 229.195 195.942C230.728 195.569 234.868 195.039 238.724 195.111ZM254.538 168C261.4 168 266.903 173.529 266.903 180.434C266.903 187.336 261.4 192.871 254.538 192.871C247.675 192.871 242.173 187.336 242.173 180.434C242.173 173.529 247.675 168 254.538 168ZM271.324 170.074C277.952 170.074 283.157 176.346 281.384 183.333C280.188 188.037 275.856 191.161 271.029 191.034C270.545 191.021 270.069 190.976 269.609 190.897C269.275 190.838 269.106 190.46 269.296 190.18C271.137 187.455 272.186 184.177 272.186 180.658C272.186 176.986 271.04 173.563 269.049 170.756C268.985 170.669 268.938 170.534 269.001 170.433C269.054 170.351 269.151 170.309 269.243 170.288C269.914 170.15 270.603 170.074 271.324 170.074ZM238.049 170.073C238.77 170.073 239.459 170.15 240.132 170.288C240.222 170.309 240.322 170.354 240.374 170.433C240.435 170.534 240.39 170.669 240.327 170.756C238.336 173.563 237.189 176.986 237.189 180.658C237.189 184.177 238.239 187.454 240.08 190.179C240.269 190.46 240.101 190.838 239.767 190.896C239.304 190.978 238.83 191.021 238.347 191.034C233.52 191.161 229.188 188.036 227.991 183.333C226.216 176.346 231.421 170.073 238.049 170.073Z" fill="white"/>
<circle cx="281.5" cy="173.5" r="18.5" fill="#1E88E5"/>
<path d="M275.143 171.609C275.143 170.62 275.24 169.773 275.436 169.07C275.631 168.367 275.963 167.794 276.432 167.352C276.9 166.902 277.525 166.577 278.307 166.375C279.094 166.167 280.074 166.062 281.246 166.062C282.138 166.062 282.926 166.157 283.609 166.346C284.299 166.528 284.876 166.814 285.338 167.205C285.807 167.596 286.161 168.094 286.402 168.699C286.643 169.298 286.764 170.011 286.764 170.838C286.764 171.385 286.666 171.902 286.471 172.391C286.275 172.872 286.018 173.328 285.699 173.758C285.387 174.188 285.025 174.591 284.615 174.969C284.212 175.346 283.798 175.704 283.375 176.043C282.952 176.375 282.535 176.684 282.125 176.971C281.721 177.257 281.36 177.527 281.041 177.781C280.729 178.029 280.475 178.26 280.279 178.475C280.084 178.689 279.986 178.888 279.986 179.07H286.178V182H275.143V179.832C275.143 179.083 275.24 178.419 275.436 177.84C275.631 177.26 275.885 176.74 276.197 176.277C276.516 175.815 276.878 175.402 277.281 175.037C277.691 174.673 278.105 174.331 278.521 174.012C278.945 173.693 279.358 173.387 279.762 173.094C280.172 172.794 280.533 172.485 280.846 172.166C281.165 171.84 281.422 171.492 281.617 171.121C281.812 170.743 281.91 170.32 281.91 169.852V168.738H279.996V171.609H275.143Z" fill="white"/>
<path d="M280.128 245C284.349 245 287 247.631 287 251.878V254.704C287 255.163 286.627 255.536 286.168 255.536H286.159V255.516C285.694 255.516 285.318 255.141 285.317 254.677V251.878C285.317 248.52 283.48 246.683 280.132 246.683H271.882C268.531 246.683 266.683 248.531 266.683 251.878V260.128C266.683 263.466 268.531 265.314 271.878 265.314H280.128C283.476 265.314 285.314 263.466 285.314 260.128C285.314 259.664 285.69 259.287 286.155 259.287C286.619 259.287 286.997 259.664 286.997 260.128C287 264.369 284.369 267 280.132 267H271.878C267.631 267 265 264.369 265 260.132V251.882C265 247.631 267.631 245 271.878 245H280.128ZM273.596 257.26C273.936 256.942 274.469 256.962 274.786 257.301C275.103 257.642 275.085 258.174 274.745 258.491L273.996 259.24C273.664 259.55 273.147 259.541 272.826 259.22L272.802 259.203C272.49 258.86 272.508 258.331 272.844 258.012L273.596 257.26ZM272.966 252.58C273.287 252.252 273.813 252.245 274.142 252.566C274.145 252.568 274.147 252.571 274.15 252.574L276.202 254.626L278.069 252.759C278.404 252.439 278.933 252.442 279.265 252.766C279.325 252.826 279.375 252.893 279.414 252.968C279.604 253.299 279.549 253.715 279.28 253.985L277.421 255.843L279.443 257.866C279.784 258.188 279.797 258.726 279.473 259.066C279.469 259.073 279.462 259.077 279.457 259.084C279.133 259.406 278.611 259.413 278.28 259.097L278.238 259.056L272.98 253.799C272.659 253.458 272.652 252.928 272.966 252.58Z" fill="#929292"/>
<path d="M117.555 174.786C119.164 174.786 120.774 174.965 122.343 175.315C125.052 175.918 126.755 178.585 126.138 181.253C125.515 183.92 122.819 185.608 120.117 184.992C113.143 183.417 106.169 188.904 106.169 195.954C106.169 202.149 111.272 207.193 117.555 207.193C123.832 207.193 128.941 202.149 128.941 195.954C128.941 195.318 128.888 194.689 128.787 194.087C128.324 191.38 130.182 188.825 132.918 188.368C135.647 187.918 138.249 189.745 138.705 192.452C138.899 193.591 139 194.762 139 195.954C139 207.623 129.377 217.121 117.555 217.121C105.726 217.121 96.1099 207.623 96.1099 195.954C96.1099 184.278 105.726 174.786 117.555 174.786ZM71.2698 190.988C74.046 190.988 76.2991 193.212 76.2991 195.952C76.2991 198.693 74.046 200.917 71.2698 200.917H30.0293C27.2531 200.917 25 198.693 25 195.952C25 193.212 27.2531 190.988 30.0293 190.988H71.2698ZM46.447 108.821C58.276 108.821 67.8921 118.313 67.8921 129.989C67.8921 141.659 58.276 151.157 46.447 151.157C34.6181 151.157 25.002 141.659 25.002 129.989C25.002 128.798 25.1026 127.626 25.2971 126.488C25.7531 123.781 28.3147 121.974 31.0841 122.404C33.8201 122.861 35.6776 125.415 35.2149 128.123C35.1143 128.725 35.0607 129.354 35.0607 129.989C35.0607 136.185 40.1637 141.228 46.447 141.228C52.7303 141.228 57.8334 136.185 57.8334 129.989C57.8334 123.787 52.7303 118.75 46.447 118.75C45.5887 118.75 44.7304 118.843 43.9123 119.028C41.1964 119.67 38.5007 117.989 37.8704 115.321C37.24 112.654 38.9232 109.98 41.6323 109.364C43.2015 109 44.8175 108.821 46.447 108.821ZM133.969 125.023C136.746 125.023 138.999 127.247 138.999 129.987C138.999 132.728 136.746 134.952 133.969 134.952H92.7356C89.9594 134.952 87.7063 132.728 87.7063 129.987C87.7063 127.247 89.9594 125.023 92.7356 125.023H133.969Z" fill="#1E88E5"/>
</svg>
