<svg width="319" height="319" viewBox="0 0 319 319" fill="none" xmlns="http://www.w3.org/2000/svg">
<rect width="319" height="319" rx="12" fill="white"/>
<path d="M39.1432 21.352H65.8952V26.28H44.5192V40.232H64.3592V45.032H44.5192V65H39.1432V21.352ZM62.7677 43.176C62.7677 39.0373 63.4077 35.5387 64.6877 32.68C66.0104 29.8213 67.6744 27.5173 69.6797 25.768C71.7277 24.0187 73.9891 22.76 76.4637 21.992C78.9811 21.1813 81.4344 20.776 83.8237 20.776C86.2131 20.776 88.6451 21.1173 91.1197 21.8C93.6371 22.44 95.8984 23.6133 97.9037 25.32C99.9517 26.984 101.616 29.2667 102.896 32.168C104.218 35.0693 104.88 38.76 104.88 43.24C104.88 47.4213 104.218 50.9413 102.896 53.8C101.616 56.6587 99.9517 58.984 97.9037 60.776C95.8984 62.568 93.6371 63.8693 91.1197 64.68C88.6451 65.448 86.2131 65.832 83.8237 65.832C81.4344 65.832 78.9811 65.448 76.4637 64.68C73.9891 63.912 71.7277 62.6533 69.6797 60.904C67.6744 59.1547 66.0104 56.8293 64.6877 53.928C63.4077 51.0267 62.7677 47.4427 62.7677 43.176ZM98.7997 43.496C98.7997 37.736 97.4557 33.3627 94.7677 30.376C92.1224 27.3893 88.5597 25.896 84.0797 25.896C81.8184 25.896 79.7491 26.2587 77.8717 26.984C76.0371 27.6667 74.4371 28.712 73.0717 30.12C71.7491 31.528 70.7037 33.2987 69.9357 35.432C69.2104 37.5227 68.8477 39.9973 68.8477 42.856C68.8477 48.616 70.1704 53.032 72.8157 56.104C75.5037 59.176 79.0877 60.712 83.5677 60.712C85.7864 60.712 87.8344 60.3707 89.7117 59.688C91.5891 58.9627 93.1891 57.8747 94.5117 56.424C95.8771 54.9733 96.9224 53.1813 97.6477 51.048C98.4157 48.9147 98.7997 46.3973 98.7997 43.496ZM105.441 21.352H116.193C118.539 21.352 120.673 21.5653 122.593 21.992C124.555 22.376 126.219 23.0587 127.585 24.04C128.95 24.9787 129.995 26.2373 130.721 27.816C131.446 29.3947 131.809 31.3787 131.809 33.768C131.766 36.4133 131.318 38.568 130.465 40.232C129.611 41.8533 128.566 43.176 127.329 44.2C126.091 45.1813 124.662 45.9067 123.041 46.376V46.504C123.211 46.6747 123.467 46.9947 123.809 47.464C124.193 47.8907 124.513 48.2747 124.769 48.616L137.121 65H130.785L118.113 47.656H110.817V65H105.441V21.352ZM126.369 34.664C126.369 32.872 126.134 31.4213 125.665 30.312C125.238 29.16 124.577 28.2853 123.681 27.688C122.827 27.0907 121.761 26.6853 120.481 26.472C119.201 26.2587 117.75 26.152 116.129 26.152H110.817V42.856H117.153C118.817 42.856 120.225 42.6427 121.377 42.216C122.529 41.7893 123.467 41.2133 124.193 40.488C124.918 39.72 125.451 38.8453 125.793 37.864C126.134 36.8827 126.326 35.816 126.369 34.664ZM135.399 21.352H142.247L152.103 47.336C152.658 48.8293 153.17 50.216 153.639 51.496C154.109 52.7333 154.514 53.8427 154.855 54.824C155.282 55.9333 155.645 56.9573 155.943 57.896H156.071C156.327 56.9573 156.647 55.9333 157.031 54.824C157.373 53.8427 157.757 52.7333 158.183 51.496C158.61 50.216 159.122 48.8293 159.719 47.336L169.767 21.352H176.615L178.855 65H173.415L172.327 41C172.242 38.9093 172.178 37.1387 172.135 35.688C172.093 34.2373 172.071 33.0427 172.071 32.104V29.416H171.943C171.687 30.056 171.367 30.9307 170.983 32.04C170.642 32.9787 170.194 34.1947 169.639 35.688C169.127 37.1387 168.487 38.9093 167.719 41L158.695 65H153.255L144.167 41C143.357 38.952 142.695 37.2027 142.183 35.752C141.671 34.2587 141.245 33.0427 140.903 32.104C140.519 30.9947 140.221 30.0987 140.007 29.416H139.879C139.922 30.0987 139.965 30.9947 140.007 32.104C140.05 33.896 139.986 36.8613 139.815 41L138.535 65H133.095L135.399 21.352Z" fill="#1E1E1E"/>
<path d="M171.742 78.792C170.398 78.376 169.198 78.104 168.142 77.976C167.118 77.816 166.174 77.736 165.31 77.736C164.19 77.736 163.246 78.008 162.478 78.552C161.742 79.096 161.374 79.8 161.374 80.664C161.406 81.432 161.742 82.088 162.382 82.632C163.022 83.176 163.758 83.672 164.59 84.12C165.454 84.536 166.398 85 167.422 85.512C168.478 86.024 169.454 86.6 170.35 87.24C171.278 87.88 172.03 88.648 172.606 89.544C173.182 90.44 173.486 91.512 173.518 92.76C173.486 94.104 173.182 95.224 172.606 96.12C172.062 96.984 171.342 97.688 170.446 98.232C169.582 98.744 168.638 99.096 167.614 99.288C166.59 99.512 165.63 99.624 164.734 99.624C163.582 99.624 162.382 99.56 161.134 99.432C159.918 99.304 158.606 99.032 157.198 98.616L157.918 95.16C159.358 95.544 160.67 95.832 161.854 96.024C163.038 96.184 164.014 96.264 164.782 96.264C165.358 96.264 165.918 96.2 166.462 96.072C167.038 95.944 167.55 95.768 167.998 95.544C168.446 95.288 168.798 94.968 169.054 94.584C169.342 94.2 169.486 93.768 169.486 93.288C169.454 92.392 169.15 91.64 168.574 91.032C167.998 90.392 167.246 89.832 166.318 89.352C165.422 88.84 164.446 88.344 163.39 87.864C162.366 87.352 161.39 86.776 160.462 86.136C159.566 85.464 158.814 84.68 158.206 83.784C157.598 82.856 157.294 81.72 157.294 80.376C157.294 79.416 157.534 78.568 158.014 77.832C158.526 77.064 159.166 76.44 159.934 75.96C160.734 75.448 161.598 75.064 162.526 74.808C163.486 74.52 164.414 74.376 165.31 74.376C166.238 74.376 167.278 74.456 168.43 74.616C169.582 74.744 170.91 75 172.414 75.384L171.742 78.792ZM178.078 67.656V74.856H185.038V77.976H178.078V90.792C178.078 91.848 178.094 92.728 178.126 93.432C178.19 94.136 178.302 94.696 178.462 95.112C178.622 95.528 178.846 95.832 179.134 96.024C179.422 96.184 179.79 96.264 180.238 96.264C181.454 96.232 182.862 95.784 184.462 94.92L185.614 97.848C184.558 98.552 183.566 99.016 182.638 99.24C181.742 99.496 180.846 99.624 179.95 99.624C177.838 99.624 176.35 99.032 175.486 97.848C174.654 96.632 174.238 94.632 174.238 91.848V77.976H169.822V74.856H174.238V68.136L178.078 67.656ZM198.154 96.36H198.058C197.77 96.584 197.354 96.888 196.81 97.272C196.266 97.624 195.642 97.976 194.938 98.328C194.234 98.68 193.45 98.984 192.586 99.24C191.754 99.496 190.906 99.624 190.042 99.624C188.858 99.624 187.85 99.464 187.018 99.144C186.186 98.856 185.514 98.36 185.002 97.656C184.49 96.952 184.122 96.024 183.898 94.872C183.674 93.72 183.562 92.28 183.562 90.552V74.856H187.402V89.976C187.402 90.936 187.418 91.8 187.45 92.568C187.482 93.336 187.594 93.992 187.786 94.536C187.978 95.08 188.282 95.512 188.698 95.832C189.146 96.12 189.77 96.264 190.57 96.264C191.402 96.264 192.266 96.088 193.162 95.736C194.058 95.384 194.874 94.984 195.61 94.536C196.474 94.024 197.322 93.448 198.154 92.808V74.856H201.994V95.88C202.026 97.032 202.106 98.072 202.234 99L198.442 99.384L198.154 96.36ZM217.804 78.456C216.652 78.136 215.756 77.944 215.116 77.88C214.476 77.784 213.82 77.736 213.148 77.736C211.804 77.736 210.652 77.976 209.692 78.456C208.732 78.936 207.932 79.608 207.292 80.472C206.684 81.304 206.236 82.28 205.948 83.4C205.66 84.488 205.516 85.656 205.516 86.904C205.516 88.024 205.628 89.144 205.852 90.264C206.108 91.384 206.492 92.392 207.004 93.288C207.516 94.184 208.14 94.904 208.876 95.448C209.612 95.992 210.492 96.264 211.516 96.264C212.22 96.264 212.94 96.136 213.676 95.88C214.444 95.624 215.148 95.336 215.788 95.016C216.428 94.664 217.1 94.232 217.804 93.72V78.456ZM217.852 97.08C217.116 97.592 216.396 98.024 215.692 98.376C215.02 98.696 214.268 98.984 213.436 99.24C212.636 99.496 211.852 99.624 211.084 99.624C208.076 99.624 205.708 98.568 203.98 96.456C202.284 94.312 201.436 91.192 201.436 87.096C201.436 84.664 201.82 82.632 202.588 81C203.388 79.368 204.38 78.072 205.564 77.112C206.748 76.12 208.012 75.416 209.356 75C210.732 74.584 211.996 74.376 213.148 74.376C213.724 74.376 214.332 74.424 214.972 74.52C215.612 74.584 216.556 74.776 217.804 75.096V63.048L221.644 62.616V94.632C221.644 95.08 221.644 95.56 221.644 96.072C221.676 96.552 221.708 97.032 221.74 97.512C221.804 97.992 221.868 98.488 221.932 99L218.236 99.384L217.852 97.08ZM219.247 74.856H223.327L227.839 85.752C228.287 86.808 228.687 87.864 229.039 88.92C229.423 89.976 229.759 90.92 230.047 91.752C230.399 92.744 230.703 93.704 230.959 94.632H231.007C231.295 93.704 231.615 92.744 231.967 91.752C232.255 90.92 232.591 89.976 232.975 88.92C233.359 87.864 233.759 86.808 234.175 85.752L238.351 74.856H242.383L230.959 103.656C230.511 104.84 229.919 105.864 229.183 106.728C228.479 107.592 227.791 108.312 227.119 108.888C226.319 109.56 225.487 110.136 224.623 110.616L222.751 107.304C223.423 106.984 224.047 106.584 224.623 106.104C225.135 105.688 225.647 105.16 226.159 104.52C226.671 103.912 227.087 103.176 227.407 102.312L228.895 98.376L219.247 74.856Z" fill="#1E1E1E"/>
<rect x="37.5" y="128.5" width="241" height="29" rx="2.5" stroke="#D9D9D9"/>
<rect x="37.5" y="168.5" width="109" height="29" rx="2.5" stroke="#D9D9D9"/>
<rect x="200.5" y="268.5" width="78" height="29" rx="2.5" fill="#0D6EFD" stroke="#D9D9D9"/>
<rect x="108.5" y="268.5" width="78" height="29" rx="2.5" fill="#22C55E" stroke="#D9D9D9"/>
<rect x="159.5" y="168.5" width="109" height="90" rx="2.5" stroke="#D9D9D9"/>
<rect x="159.5" y="168.5" width="109" height="14" rx="2.5" fill="#D9D9D9" stroke="#D9D9D9"/>
</svg>
