<svg width="319" height="319" viewBox="0 0 319 319" fill="none" xmlns="http://www.w3.org/2000/svg">
<rect width="319" height="319" rx="12" fill="white"/>
<rect x="22.5" y="20.5" width="190" height="66" rx="33" fill="#664520" stroke="white"/>
<path d="M39.4098 52.184H50.9298V40.664H56.0498V52.184H67.5698V56.92H56.0498V68.44H50.9298V56.92H39.4098V52.184Z" fill="white"/>
<rect x="248" y="23" width="58" height="20" fill="#FDC936"/>
<rect x="248" y="48" width="58" height="39" fill="#088949"/>
<path d="M27.7395 100.352H33.1155V144H27.7395V100.352ZM35.0845 118.208C35.1272 117.312 35.0205 115.371 34.7645 112.384L39.5005 111.744L40.2045 115.84C41.4845 114.987 42.7432 114.24 43.9805 113.6C45.2605 112.96 46.5618 112.405 47.8845 111.936C49.2072 111.424 50.4872 111.168 51.7245 111.168C53.4738 111.168 54.9245 111.381 56.0765 111.808C57.2712 112.192 58.2312 112.853 58.9565 113.792C59.6818 114.731 60.1938 115.968 60.4925 117.504C60.8338 119.04 61.0045 120.96 61.0045 123.264V144H55.8845V123.84C55.8845 122.56 55.8632 121.429 55.8205 120.448C55.7778 119.424 55.5858 118.571 55.2445 117.888C54.9458 117.163 54.4552 116.608 53.7725 116.224C53.1325 115.84 52.2152 115.648 51.0205 115.648C49.9112 115.648 48.7378 115.904 47.5005 116.416C46.2632 116.885 45.0472 117.44 43.8525 118.08C42.6578 118.72 41.4418 119.467 40.2045 120.32V144H35.0845V118.208ZM69.1885 102.208V111.808H78.4685V115.968H69.1885V133.056C69.1885 134.464 69.2098 135.637 69.2525 136.576C69.3378 137.515 69.4872 138.261 69.7005 138.816C69.9138 139.371 70.2125 139.776 70.5965 140.032C70.9805 140.245 71.4712 140.352 72.0685 140.352C73.6898 140.309 75.5672 139.712 77.7005 138.56L79.2365 142.464C77.8285 143.403 76.5058 144.021 75.2685 144.32C74.0738 144.661 72.8792 144.832 71.6845 144.832C68.8685 144.832 66.8845 144.043 65.7325 142.464C64.6232 140.843 64.0685 138.176 64.0685 134.464V115.968H58.1805V111.808H64.0685V102.848L69.1885 102.208ZM100.251 143.232C99.2697 143.531 98.2457 143.787 97.179 144C96.155 144.213 95.003 144.405 93.723 144.576C92.4857 144.747 91.1843 144.832 89.819 144.832C87.6857 144.832 85.7017 144.533 83.867 143.936C82.0323 143.339 80.4323 142.379 79.067 141.056C77.7017 139.733 76.6137 138.027 75.803 135.936C75.035 133.803 74.651 131.2 74.651 128.128C74.651 125.355 75.035 122.923 75.803 120.832C76.571 118.699 77.6163 116.928 78.939 115.52C80.3043 114.069 81.883 112.981 83.675 112.256C85.5097 111.531 87.4937 111.168 89.627 111.168C91.7177 111.168 93.531 111.573 95.067 112.384C96.603 113.195 97.8617 114.304 98.843 115.712C99.867 117.077 100.614 118.699 101.083 120.576C101.595 122.411 101.851 124.352 101.851 126.4L100.891 129.216H80.219C80.219 130.539 80.3897 131.861 80.731 133.184C81.0723 134.507 81.6483 135.701 82.459 136.768C83.3123 137.835 84.4003 138.709 85.723 139.392C87.0883 140.032 88.7737 140.352 90.779 140.352C92.059 140.352 93.2323 140.288 94.299 140.16C95.3657 139.989 96.283 139.819 97.051 139.648C97.8617 139.435 98.6083 139.2 99.291 138.944L100.251 143.232ZM96.539 125.12C96.539 124.821 96.475 124.16 96.347 123.136C96.219 122.112 95.9203 121.045 95.451 119.936C94.9817 118.827 94.2563 117.845 93.275 116.992C92.2937 116.096 90.9923 115.648 89.371 115.648C87.579 115.648 86.107 116.032 84.955 116.8C83.803 117.525 82.8857 118.4 82.203 119.424C81.5203 120.448 81.051 121.493 80.795 122.56C80.539 123.627 80.411 124.48 80.411 125.12H96.539ZM100.562 116.992C100.562 116.011 100.455 114.475 100.242 112.384L104.978 111.744L105.49 116.416H105.554C106.322 115.435 107.069 114.581 107.794 113.856C108.519 113.131 109.266 112.512 110.034 112C110.845 111.445 111.613 111.168 112.338 111.168C113.319 111.125 114.685 111.232 116.434 111.488L115.282 116.416C113.874 116.16 112.893 116.053 112.338 116.096C111.613 116.096 110.845 116.437 110.034 117.12C109.223 117.803 108.519 118.528 107.922 119.296C107.154 120.235 106.407 121.301 105.682 122.496V144H100.562V116.992ZM113.805 118.208C113.847 117.312 113.74 115.371 113.484 112.384L118.22 111.744L118.925 115.84C120.205 114.987 121.463 114.24 122.701 113.6C123.981 112.96 125.282 112.405 126.604 111.936C127.927 111.424 129.207 111.168 130.444 111.168C132.194 111.168 133.645 111.381 134.797 111.808C135.991 112.192 136.951 112.853 137.677 113.792C138.402 114.731 138.914 115.968 139.213 117.504C139.554 119.04 139.725 120.96 139.725 123.264V144H134.605V123.84C134.605 122.56 134.583 121.429 134.541 120.448C134.498 119.424 134.306 118.571 133.965 117.888C133.666 117.163 133.175 116.608 132.493 116.224C131.853 115.84 130.935 115.648 129.741 115.648C128.631 115.648 127.458 115.904 126.221 116.416C124.983 116.885 123.767 117.44 122.573 118.08C121.378 118.72 120.162 119.467 118.925 120.32V144H113.805V118.208ZM160.795 89.6L165.595 91.392L141.595 157.376L136.795 155.584L160.795 89.6ZM164.125 100.352H190.877V105.28H169.501V119.232H189.341V124.032H169.501V139.072H191.517V144H164.125V100.352ZM199.354 127.104L187.45 111.808H193.466L202.874 123.712L211.77 111.808H217.53L206.33 126.912L218.618 144H212.602L202.81 130.368L192.89 144H187.13L199.354 127.104ZM222.948 102.208V111.808H232.228V115.968H222.948V133.056C222.948 134.464 222.97 135.637 223.012 136.576C223.098 137.515 223.247 138.261 223.46 138.816C223.674 139.371 223.972 139.776 224.356 140.032C224.74 140.245 225.231 140.352 225.828 140.352C227.45 140.309 229.327 139.712 231.46 138.56L232.996 142.464C231.588 143.403 230.266 144.021 229.028 144.32C227.834 144.661 226.639 144.832 225.444 144.832C222.628 144.832 220.644 144.043 219.492 142.464C218.383 140.843 217.828 138.176 217.828 134.464V115.968H211.94V111.808H217.828V102.848L222.948 102.208ZM254.011 143.232C253.03 143.531 252.006 143.787 250.939 144C249.915 144.213 248.763 144.405 247.483 144.576C246.246 144.747 244.944 144.832 243.579 144.832C241.446 144.832 239.462 144.533 237.627 143.936C235.792 143.339 234.192 142.379 232.827 141.056C231.462 139.733 230.374 138.027 229.563 135.936C228.795 133.803 228.411 131.2 228.411 128.128C228.411 125.355 228.795 122.923 229.563 120.832C230.331 118.699 231.376 116.928 232.699 115.52C234.064 114.069 235.643 112.981 237.435 112.256C239.27 111.531 241.254 111.168 243.387 111.168C245.478 111.168 247.291 111.573 248.827 112.384C250.363 113.195 251.622 114.304 252.603 115.712C253.627 117.077 254.374 118.699 254.843 120.576C255.355 122.411 255.611 124.352 255.611 126.4L254.651 129.216H233.979C233.979 130.539 234.15 131.861 234.491 133.184C234.832 134.507 235.408 135.701 236.219 136.768C237.072 137.835 238.16 138.709 239.483 139.392C240.848 140.032 242.534 140.352 244.539 140.352C245.819 140.352 246.992 140.288 248.059 140.16C249.126 139.989 250.043 139.819 250.811 139.648C251.622 139.435 252.368 139.2 253.051 138.944L254.011 143.232ZM250.299 125.12C250.299 124.821 250.235 124.16 250.107 123.136C249.979 122.112 249.68 121.045 249.211 119.936C248.742 118.827 248.016 117.845 247.035 116.992C246.054 116.096 244.752 115.648 243.131 115.648C241.339 115.648 239.867 116.032 238.715 116.8C237.563 117.525 236.646 118.4 235.963 119.424C235.28 120.448 234.811 121.493 234.555 122.56C234.299 123.627 234.171 124.48 234.171 125.12H250.299ZM254.322 116.992C254.322 116.011 254.215 114.475 254.002 112.384L258.738 111.744L259.25 116.416H259.314C260.082 115.435 260.829 114.581 261.554 113.856C262.279 113.131 263.026 112.512 263.794 112C264.605 111.445 265.373 111.168 266.098 111.168C267.079 111.125 268.445 111.232 270.194 111.488L269.042 116.416C267.634 116.16 266.653 116.053 266.098 116.096C265.373 116.096 264.605 116.437 263.794 117.12C262.983 117.803 262.279 118.528 261.682 119.296C260.914 120.235 260.167 121.301 259.442 122.496V144H254.322V116.992ZM267.565 118.208C267.607 117.312 267.501 115.371 267.245 112.384L271.981 111.744L272.685 115.84C273.965 114.987 275.223 114.24 276.461 113.6C277.741 112.96 279.042 112.405 280.365 111.936C281.687 111.424 282.967 111.168 284.205 111.168C285.954 111.168 287.405 111.381 288.557 111.808C289.751 112.192 290.711 112.853 291.437 113.792C292.162 114.731 292.674 115.968 292.973 117.504C293.314 119.04 293.485 120.96 293.485 123.264V144H288.365V123.84C288.365 122.56 288.343 121.429 288.301 120.448C288.258 119.424 288.066 118.571 287.725 117.888C287.426 117.163 286.935 116.608 286.253 116.224C285.613 115.84 284.695 115.648 283.501 115.648C282.391 115.648 281.218 115.904 279.981 116.416C278.743 116.885 277.527 117.44 276.333 118.08C275.138 118.72 273.922 119.467 272.685 120.32V144H267.565V118.208Z" fill="black"/>
<path d="M182.518 157.352H209.27V162.28H187.894V176.232H207.734V181.032H187.894V201H182.518V157.352ZM210.76 185.064C210.76 189.203 211.677 192.296 213.512 194.344C215.389 196.349 217.906 197.352 221.064 197.352C224.178 197.352 226.61 196.349 228.36 194.344C230.109 192.339 230.984 189.331 230.984 185.32C230.984 181.053 230.045 177.875 228.168 175.784C226.333 173.693 223.816 172.648 220.616 172.648C217.416 172.648 214.962 173.693 213.256 175.784C211.592 177.832 210.76 180.925 210.76 185.064ZM205.32 185C205.32 181.757 205.832 179.069 206.856 176.936C207.88 174.76 209.181 173.032 210.76 171.752C212.338 170.429 214.024 169.512 215.816 169C217.65 168.445 219.378 168.168 221 168.168C222.536 168.168 224.2 168.424 225.992 168.936C227.826 169.405 229.512 170.28 231.048 171.56C232.584 172.797 233.864 174.483 234.888 176.616C235.912 178.707 236.424 181.373 236.424 184.616C236.424 187.987 235.89 190.781 234.824 193C233.8 195.219 232.498 196.989 230.92 198.312C229.341 199.592 227.634 200.488 225.8 201C223.965 201.555 222.258 201.832 220.68 201.832C219.058 201.832 217.352 201.576 215.56 201.064C213.768 200.552 212.104 199.677 210.568 198.44C209.074 197.16 207.816 195.432 206.792 193.256C205.81 191.08 205.32 188.328 205.32 185ZM235.606 173.992C235.606 173.011 235.499 171.475 235.286 169.384L240.022 168.744L240.534 173.416H240.598C241.366 172.435 242.112 171.581 242.838 170.856C243.563 170.131 244.31 169.512 245.078 169C245.888 168.445 246.656 168.168 247.382 168.168C248.363 168.125 249.728 168.232 251.478 168.488L250.326 173.416C248.918 173.16 247.936 173.053 247.382 173.096C246.656 173.096 245.888 173.437 245.078 174.12C244.267 174.803 243.563 175.528 242.966 176.296C242.198 177.235 241.451 178.301 240.726 179.496V201H235.606V173.992ZM248.848 174.632C248.848 173.181 248.72 171.432 248.464 169.384L253.264 168.744L253.968 172.776C255.12 171.923 256.251 171.176 257.36 170.536C258.47 169.896 259.664 169.341 260.944 168.872C262.224 168.403 263.526 168.168 264.848 168.168C266.982 168.168 268.667 168.552 269.904 169.32C271.142 170.045 272.059 171.304 272.656 173.096C274.406 171.859 276.219 170.728 278.096 169.704C280.016 168.68 282 168.168 284.048 168.168C285.627 168.168 286.971 168.381 288.08 168.808C289.19 169.192 290.086 169.853 290.768 170.792C291.451 171.731 291.942 172.968 292.24 174.504C292.539 176.04 292.688 177.96 292.688 180.264V201H287.568V180.84C287.568 179.56 287.547 178.429 287.504 177.448C287.462 176.424 287.312 175.571 287.056 174.888C286.8 174.163 286.374 173.608 285.776 173.224C285.222 172.84 284.411 172.648 283.344 172.648C282.363 172.648 281.424 172.797 280.528 173.096C279.675 173.352 278.779 173.736 277.84 174.248C276.902 174.76 275.451 175.805 273.488 177.384V201H268.368V180.84C268.368 179.56 268.347 178.429 268.304 177.448C268.262 176.424 268.112 175.571 267.856 174.888C267.6 174.163 267.174 173.608 266.576 173.224C266.022 172.84 265.211 172.648 264.144 172.648C263.035 172.648 261.883 172.883 260.688 173.352C259.494 173.821 258.363 174.376 257.296 175.016C256.23 175.656 255.12 176.403 253.968 177.256V201H248.848V174.632Z" fill="black"/>
<rect x="24.5" y="164.5" width="145" height="29" rx="2.5" stroke="#9F9A9A"/>
<rect x="175.5" y="211.5" width="121" height="86" rx="2.5" fill="#F0E0C7" stroke="#F0E0C7"/>
<rect x="24.5" y="205.5" width="145" height="92" rx="2.5" stroke="#929292"/>
<path fill-rule="evenodd" clip-rule="evenodd" d="M149.583 214C155.814 214 160 218.267 160 224.617V242.842C160 249.247 155.943 253.413 149.665 253.452L134.418 253.458C128.188 253.458 124 249.191 124 242.842V224.617C124 218.209 128.057 214.046 134.335 214.008L149.582 214H149.583ZM149.583 216.973L134.345 216.981C129.731 217.008 126.973 219.862 126.973 224.617V242.842C126.973 247.628 129.757 250.486 134.417 250.486L149.655 250.48C154.269 250.452 157.027 247.594 157.027 242.842V224.617C157.027 219.831 154.245 216.973 149.583 216.973ZM149.201 240.703C150.022 240.703 150.688 241.369 150.688 242.189C150.688 243.009 150.022 243.675 149.201 243.675H134.892C134.072 243.675 133.406 243.009 133.406 242.189C133.406 241.369 134.072 240.703 134.892 240.703H149.201ZM149.201 232.406C150.022 232.406 150.688 233.072 150.688 233.892C150.688 234.713 150.022 235.378 149.201 235.378H134.892C134.072 235.378 133.406 234.713 133.406 233.892C133.406 233.072 134.072 232.406 134.892 232.406H149.201ZM140.352 224.128C141.172 224.128 141.838 224.794 141.838 225.614C141.838 226.435 141.172 227.101 140.352 227.101H134.892C134.071 227.101 133.405 226.435 133.405 225.614C133.405 224.794 134.071 224.128 134.892 224.128H140.352Z" fill="black"/>
<path fill-rule="evenodd" clip-rule="evenodd" d="M71.5009 248.879C72.3289 248.879 73.0009 249.551 73.0009 250.379C73.0009 251.207 72.3289 251.879 71.5009 251.879H56.9949C56.1669 251.879 55.4949 251.207 55.4949 250.379C55.4949 249.551 56.1669 248.879 56.9949 248.879H71.5009ZM62.2325 215.307C62.3325 215.385 65.6785 217.985 65.6785 217.985C66.8945 218.709 67.8445 220.003 68.2045 221.535C68.5625 223.051 68.3025 224.615 67.4685 225.937C67.463 225.946 67.4575 225.955 67.4381 225.981L67.4231 226.001C67.2877 226.179 66.6992 226.923 63.7291 230.644C63.7015 230.693 63.6703 230.739 63.6361 230.783C63.5861 230.849 63.5316 230.909 63.4734 230.964C63.2708 231.219 63.0568 231.487 62.8318 231.768L62.376 232.339C61.4354 233.517 60.3197 234.914 58.9961 236.571L58.3168 237.421C55.7615 240.619 52.4889 244.714 48.2965 249.959C47.3785 251.103 46.0025 251.769 44.5245 251.787L37.2465 251.879H37.2265C36.5325 251.879 35.9285 251.403 35.7665 250.725L34.1285 243.783C33.7905 242.345 34.1265 240.861 35.0485 239.709L53.8885 216.145C53.8965 216.137 53.9025 216.127 53.9105 216.119C55.9765 213.649 59.7125 213.285 62.2325 215.307ZM51.788 223.574L37.3905 241.583C37.0485 242.011 36.9225 242.563 37.0485 243.093L38.4105 248.863L44.4885 248.787C45.0665 248.781 45.6005 248.523 45.9545 248.083C47.7775 245.802 50.0687 242.936 52.4243 239.988L53.2577 238.945L54.0925 237.9C56.3016 235.136 58.4841 232.404 60.3103 230.118L51.788 223.574ZM56.2205 218.033L53.662 221.23L62.1835 227.772C63.8238 225.717 64.9028 224.364 65.0025 224.235C65.3305 223.703 65.4585 222.951 65.2865 222.227C65.1105 221.485 64.6485 220.855 63.9825 220.453C63.8405 220.355 60.4705 217.739 60.3665 217.657C59.0985 216.641 57.2485 216.817 56.2205 218.033Z" fill="black"/>
<path fill-rule="evenodd" clip-rule="evenodd" d="M107.604 214C110.82 214 113.594 215.074 115.624 217.108C117.746 219.232 118.91 222.322 118.906 225.81L118.909 239.803C118.912 239.857 118.913 239.911 118.911 239.964L118.906 242.1C118.906 249.162 114.36 253.908 107.594 253.908H90.302C83.542 253.908 79 249.162 79 242.1V225.808C79 218.746 83.542 214 90.302 214H107.604ZM108.157 235.665C106.981 235.665 105.601 237.611 104.379 239.329C102.703 241.689 100.969 244.131 98.3572 244.131C96.5912 244.131 94.9732 243.451 93.5472 242.849C91.2792 241.893 90.2512 241.587 89.2452 242.415C87.2314 244.074 85.2416 247.096 84.3273 248.583C85.7704 250.071 87.8203 250.908 90.302 250.908H107.594C112.644 250.908 115.906 247.452 115.906 242.1L115.906 240.502L115.86 240.453C114.109 238.65 111.086 235.665 108.157 235.665ZM107.604 217H90.302C85.26 217 82 220.458 82 225.808V242.1C82 243.437 82.2035 244.656 82.5874 245.732C83.7448 243.985 85.4928 241.619 87.3392 240.099C89.8432 238.039 92.5392 239.171 94.7112 240.085C95.9892 240.623 97.1972 241.131 98.3572 241.131C99.4212 241.131 100.755 239.251 101.935 237.593C103.573 235.281 105.433 232.665 108.157 232.665C111.147 232.665 113.854 234.502 115.908 236.325L115.906 225.808C115.91 223.082 115.078 220.806 113.502 219.228C112.046 217.77 110.008 217 107.604 217ZM92.714 222.379C95.576 222.381 97.904 224.709 97.906 227.569C97.906 230.431 95.578 232.761 92.714 232.761C89.85 232.761 87.522 230.433 87.522 227.571C87.522 224.707 89.85 222.379 92.714 222.379ZM92.712 225.379C91.504 225.379 90.522 226.361 90.522 227.571C90.522 228.779 91.504 229.761 92.714 229.761C93.922 229.761 94.906 228.779 94.906 227.573C94.904 226.363 93.92 225.381 92.712 225.379Z" fill="black"/>
</svg>
