<svg width="319" height="319" viewBox="0 0 319 319" fill="none" xmlns="http://www.w3.org/2000/svg">
<rect width="319" height="319" rx="12" fill="#3532E5"/>
<path d="M0 211H181C208.614 211 231 233.386 231 261V269C231 296.614 208.614 319 181 319H12C5.37259 319 0 313.627 0 307V211Z" fill="#32A5E5"/>
<path d="M70.9587 101H53.8962L44.2869 58.0625V101H26.4744V26.2344H55.2556L62.4275 71.8438L69.5994 26.2344H98.3806V101H80.5681V58.0625L70.9587 101ZM129.916 26.2344L137.744 54.6875L145.854 26.2344H168.448L149.51 79.9531V101H126.213V79.4844L106.76 26.2344H129.916Z" fill="white"/>
<path d="M75.8138 116.234H107.22C111.595 116.234 115.267 116.516 118.236 117.078C121.236 117.641 123.704 118.391 125.642 119.328C127.611 120.266 129.111 121.359 130.142 122.609C131.204 123.828 131.986 125.125 132.486 126.5C132.986 127.844 133.267 129.219 133.329 130.625C133.423 132 133.47 133.312 133.47 134.562V152.422C133.47 153.672 133.423 155 133.329 156.406C133.267 157.781 132.986 159.141 132.486 160.484C131.986 161.828 131.204 163.125 130.142 164.375C129.111 165.625 127.611 166.719 125.642 167.656C123.704 168.594 121.236 169.344 118.236 169.906C115.267 170.469 111.595 170.75 107.22 170.75H99.1106V191H75.8138V116.234ZM99.1106 160.531H110.173V127.344H99.1106V160.531ZM161.021 172.578L159.099 191H134.959L146.959 116.234H187.178L199.178 191H174.943L173.115 172.578H161.021ZM162.24 164.188H171.896L167.021 127.203L162.24 164.188ZM259.166 158.844V191H238.776L236.526 186.125C235.901 187.375 235.041 188.484 233.948 189.453C233.01 190.266 231.744 191.016 230.151 191.703C228.588 192.391 226.604 192.734 224.198 192.734C221.229 192.734 218.604 192.453 216.323 191.891C214.073 191.328 212.104 190.562 210.416 189.594C208.729 188.625 207.307 187.516 206.151 186.266C205.026 185.016 204.119 183.703 203.432 182.328C202.744 180.953 202.244 179.578 201.932 178.203C201.651 176.797 201.51 175.469 201.51 174.219V133.484C201.51 132.141 201.588 130.734 201.744 129.266C201.932 127.797 202.323 126.359 202.916 124.953C203.541 123.547 204.463 122.219 205.682 120.969C206.932 119.688 208.604 118.578 210.698 117.641C212.823 116.672 215.463 115.906 218.619 115.344C221.807 114.781 225.651 114.5 230.151 114.5C234.557 114.5 238.323 114.797 241.448 115.391C244.604 115.984 247.244 116.781 249.369 117.781C251.526 118.75 253.244 119.891 254.526 121.203C255.838 122.484 256.823 123.828 257.479 125.234C258.166 126.641 258.619 128.062 258.838 129.5C259.057 130.906 259.166 132.234 259.166 133.484V148.391H235.869V127.344H224.807V179.891H239.901V169.672H233.151V158.844H259.166ZM304.811 116.234V127.344H290.327V145.953H303.827V157.672H290.327V179.891H304.811V191H267.03V116.234H304.811Z" fill="#1E1E1E"/>
<path d="M75.8138 116.234H107.22C111.595 116.234 115.267 116.516 118.236 117.078C121.236 117.641 123.704 118.391 125.642 119.328C127.611 120.266 129.111 121.359 130.142 122.609C131.204 123.828 131.986 125.125 132.486 126.5C132.986 127.844 133.267 129.219 133.329 130.625C133.423 132 133.47 133.312 133.47 134.562V152.422C133.47 153.672 133.423 155 133.329 156.406C133.267 157.781 132.986 159.141 132.486 160.484C131.986 161.828 131.204 163.125 130.142 164.375C129.111 165.625 127.611 166.719 125.642 167.656C123.704 168.594 121.236 169.344 118.236 169.906C115.267 170.469 111.595 170.75 107.22 170.75H99.1106V191H75.8138V116.234ZM99.1106 160.531H110.173V127.344H99.1106V160.531ZM161.021 172.578L159.099 191H134.959L146.959 116.234H187.178L199.178 191H174.943L173.115 172.578H161.021ZM162.24 164.188H171.896L167.021 127.203L162.24 164.188ZM259.166 158.844V191H238.776L236.526 186.125C235.901 187.375 235.041 188.484 233.948 189.453C233.01 190.266 231.744 191.016 230.151 191.703C228.588 192.391 226.604 192.734 224.198 192.734C221.229 192.734 218.604 192.453 216.323 191.891C214.073 191.328 212.104 190.562 210.416 189.594C208.729 188.625 207.307 187.516 206.151 186.266C205.026 185.016 204.119 183.703 203.432 182.328C202.744 180.953 202.244 179.578 201.932 178.203C201.651 176.797 201.51 175.469 201.51 174.219V133.484C201.51 132.141 201.588 130.734 201.744 129.266C201.932 127.797 202.323 126.359 202.916 124.953C203.541 123.547 204.463 122.219 205.682 120.969C206.932 119.688 208.604 118.578 210.698 117.641C212.823 116.672 215.463 115.906 218.619 115.344C221.807 114.781 225.651 114.5 230.151 114.5C234.557 114.5 238.323 114.797 241.448 115.391C244.604 115.984 247.244 116.781 249.369 117.781C251.526 118.75 253.244 119.891 254.526 121.203C255.838 122.484 256.823 123.828 257.479 125.234C258.166 126.641 258.619 128.062 258.838 129.5C259.057 130.906 259.166 132.234 259.166 133.484V148.391H235.869V127.344H224.807V179.891H239.901V169.672H233.151V158.844H259.166ZM304.811 116.234V127.344H290.327V145.953H303.827V157.672H290.327V179.891H304.811V191H267.03V116.234H304.811Z" fill="#1E1E1E"/>
<rect x="195" y="34" width="40" height="20" rx="3" fill="#3264E5"/>
<rect x="240" y="59" width="40" height="20" rx="3" fill="#3264E5"/>
<rect x="210" y="59" width="25" height="20" rx="3" fill="#004FC6"/>
<rect x="240" y="34" width="33" height="20" rx="3" fill="#32A5E5"/>
</svg>
