<svg width="488" height="217" viewBox="0 0 488 217" fill="none" xmlns="http://www.w3.org/2000/svg">
<rect x="106" width="104" height="68" rx="12" fill="#35DAE5"/>
<path d="M132.165 23.4766H127.555V45.3711H132.165V36.6016H141.872V42.7539C141.872 43.2747 141.839 43.8346 141.774 44.4336C141.722 45.0326 141.566 45.6315 141.305 46.2305C141.058 46.8164 140.68 47.3828 140.173 47.9297C139.665 48.4766 138.962 48.9583 138.063 49.375C137.178 49.7917 136.065 50.1237 134.723 50.3711C133.395 50.6315 131.774 50.7617 129.86 50.7617C127.959 50.7617 126.345 50.6315 125.016 50.3711C123.688 50.1237 122.575 49.7917 121.677 49.375C120.791 48.9583 120.095 48.4766 119.587 47.9297C119.079 47.3828 118.695 46.8164 118.434 46.2305C118.174 45.6315 118.011 45.0326 117.946 44.4336C117.881 43.8346 117.848 43.2747 117.848 42.7539V26.0352C117.848 25.5143 117.881 24.9609 117.946 24.375C118.011 23.776 118.167 23.1836 118.415 22.5977C118.675 22.0117 119.059 21.4518 119.567 20.918C120.088 20.3711 120.791 19.8958 121.677 19.4922C122.562 19.0755 123.662 18.7435 124.977 18.4961C126.305 18.2487 127.914 18.125 129.802 18.125C131.729 18.125 133.363 18.2487 134.704 18.4961C136.045 18.7435 137.165 19.0755 138.063 19.4922C138.962 19.8958 139.665 20.3711 140.173 20.918C140.68 21.4518 141.058 22.0117 141.305 22.5977C141.566 23.1836 141.722 23.776 141.774 24.375C141.839 24.9609 141.872 25.5143 141.872 26.0352V32.2461H132.165V23.4766ZM154.191 27.9688C154.191 28.3854 154.393 28.7174 154.797 28.9648C155.214 29.2122 155.754 29.4336 156.418 29.6289C157.095 29.8112 157.863 29.9935 158.723 30.1758C159.582 30.3581 160.454 30.5924 161.34 30.8789C162.238 31.1523 163.117 31.5104 163.977 31.9531C164.836 32.3828 165.598 32.9492 166.262 33.6523C166.939 34.3424 167.479 35.1953 167.883 36.2109C168.299 37.2266 168.508 38.4505 168.508 39.8828C168.508 40.9115 168.482 41.8945 168.43 42.832C168.378 43.7695 168.234 44.6419 168 45.4492C167.766 46.2435 167.401 46.9661 166.906 47.6172C166.411 48.2682 165.715 48.8281 164.816 49.2969C163.931 49.7526 162.811 50.1042 161.457 50.3516C160.103 50.599 158.449 50.7227 156.496 50.7227C154.764 50.7227 153.247 50.6315 151.945 50.4492C150.656 50.2799 149.549 50.013 148.625 49.6484C147.701 49.2839 146.939 48.8216 146.34 48.2617C145.754 47.6888 145.285 47.0182 144.934 46.25C144.595 45.4818 144.361 44.6029 144.23 43.6133C144.1 42.6237 144.035 41.5234 144.035 40.3125H154.191V45.3711H158.801V39.5898C158.801 39.2122 158.592 38.8997 158.176 38.6523C157.772 38.4049 157.232 38.1836 156.555 37.9883C155.891 37.7799 155.129 37.5781 154.27 37.3828C153.41 37.1875 152.531 36.9531 151.633 36.6797C150.747 36.4062 149.875 36.0742 149.016 35.6836C148.156 35.293 147.388 34.8112 146.711 34.2383C146.047 33.6523 145.507 32.9557 145.09 32.1484C144.686 31.3281 144.484 30.3516 144.484 29.2188C144.484 27.8125 144.556 26.5625 144.699 25.4688C144.842 24.362 145.09 23.3984 145.441 22.5781C145.793 21.7578 146.268 21.0677 146.867 20.5078C147.466 19.9349 148.215 19.4727 149.113 19.1211C150.025 18.7695 151.099 18.5156 152.336 18.3594C153.586 18.2031 155.038 18.125 156.691 18.125C159.061 18.125 161.008 18.2812 162.531 18.5938C164.068 18.9062 165.279 19.4271 166.164 20.1562C167.049 20.8854 167.661 21.8424 168 23.0273C168.339 24.2122 168.508 25.6641 168.508 27.3828H158.801V23.4766H154.191V27.9688ZM179.968 27.9688C179.968 28.3854 180.17 28.7174 180.573 28.9648C180.99 29.2122 181.53 29.4336 182.195 29.6289C182.872 29.8112 183.64 29.9935 184.499 30.1758C185.359 30.3581 186.231 30.5924 187.116 30.8789C188.015 31.1523 188.894 31.5104 189.753 31.9531C190.612 32.3828 191.374 32.9492 192.038 33.6523C192.715 34.3424 193.256 35.1953 193.659 36.2109C194.076 37.2266 194.284 38.4505 194.284 39.8828C194.284 40.9115 194.258 41.8945 194.206 42.832C194.154 43.7695 194.011 44.6419 193.777 45.4492C193.542 46.2435 193.178 46.9661 192.683 47.6172C192.188 48.2682 191.491 48.8281 190.593 49.2969C189.708 49.7526 188.588 50.1042 187.234 50.3516C185.879 50.599 184.226 50.7227 182.273 50.7227C180.541 50.7227 179.024 50.6315 177.722 50.4492C176.433 50.2799 175.326 50.013 174.402 49.6484C173.477 49.2839 172.715 48.8216 172.116 48.2617C171.53 47.6888 171.062 47.0182 170.71 46.25C170.372 45.4818 170.137 44.6029 170.007 43.6133C169.877 42.6237 169.812 41.5234 169.812 40.3125H179.968V45.3711H184.577V39.5898C184.577 39.2122 184.369 38.8997 183.952 38.6523C183.549 38.4049 183.008 38.1836 182.331 37.9883C181.667 37.7799 180.905 37.5781 180.046 37.3828C179.187 37.1875 178.308 36.9531 177.409 36.6797C176.524 36.4062 175.652 36.0742 174.792 35.6836C173.933 35.293 173.165 34.8112 172.487 34.2383C171.823 33.6523 171.283 32.9557 170.866 32.1484C170.463 31.3281 170.261 30.3516 170.261 29.2188C170.261 27.8125 170.333 26.5625 170.476 25.4688C170.619 24.362 170.866 23.3984 171.218 22.5781C171.57 21.7578 172.045 21.0677 172.644 20.5078C173.243 19.9349 173.991 19.4727 174.89 19.1211C175.801 18.7695 176.876 18.5156 178.112 18.3594C179.362 18.2031 180.814 18.125 182.468 18.125C184.838 18.125 186.784 18.2812 188.308 18.5938C189.844 18.9062 191.055 19.4271 191.941 20.1562C192.826 20.8854 193.438 21.8424 193.777 23.0273C194.115 24.2122 194.284 25.6641 194.284 27.3828H184.577V23.4766H179.968V27.9688Z" fill="white"/>
<rect x="216" width="272" height="69" rx="12" fill="#32A5E5"/>
<path d="M269.82 42.8242L269.02 50.5H258.961L263.961 19.3477H280.719L285.719 50.5H275.621L274.859 42.8242H269.82ZM270.328 39.3281H274.352L272.32 23.918L270.328 39.3281ZM302.609 50.5L295.089 36.6133V50.5H287.042V19.3477H295.909L303.878 34.2109V19.3477H311.671V50.5H302.609ZM339.537 37.1016V50.5H331.041L330.104 48.4688C329.843 48.9896 329.485 49.4518 329.03 49.8555C328.639 50.194 328.112 50.5065 327.448 50.793C326.797 51.0794 325.97 51.2227 324.967 51.2227C323.73 51.2227 322.636 51.1055 321.686 50.8711C320.748 50.6367 319.928 50.3177 319.225 49.9141C318.522 49.5104 317.929 49.0482 317.448 48.5273C316.979 48.0065 316.601 47.4596 316.315 46.8867C316.028 46.3138 315.82 45.7409 315.69 45.168C315.573 44.582 315.514 44.0286 315.514 43.5078V26.5352C315.514 25.9753 315.547 25.3893 315.612 24.7773C315.69 24.1654 315.853 23.5664 316.1 22.9805C316.36 22.3945 316.745 21.8411 317.252 21.3203C317.773 20.7865 318.47 20.3242 319.342 19.9336C320.228 19.5299 321.328 19.2109 322.643 18.9766C323.971 18.7422 325.573 18.625 327.448 18.625C329.284 18.625 330.853 18.7487 332.155 18.9961C333.47 19.2435 334.57 19.5755 335.455 19.9922C336.354 20.3958 337.07 20.8711 337.604 21.418C338.151 21.9518 338.561 22.5117 338.834 23.0977C339.121 23.6836 339.31 24.276 339.401 24.875C339.492 25.4609 339.537 26.0143 339.537 26.5352V32.7461H329.83V23.9766H325.221V45.8711H331.51V41.6133H328.698V37.1016H339.537ZM352.482 45.8711H357.091V19.3477H366.798V43.2539C366.798 43.7747 366.766 44.3346 366.701 44.9336C366.636 45.5326 366.473 46.1315 366.213 46.7305C365.952 47.3164 365.561 47.8828 365.041 48.4297C364.52 48.9766 363.81 49.4583 362.912 49.875C362.013 50.2917 360.893 50.6237 359.552 50.8711C358.211 51.1315 356.584 51.2617 354.67 51.2617C352.782 51.2617 351.173 51.1315 349.845 50.8711C348.517 50.6237 347.41 50.2917 346.525 49.875C345.653 49.4583 344.963 48.9766 344.455 48.4297C343.96 47.8828 343.582 47.3164 343.322 46.7305C343.074 46.1315 342.918 45.5326 342.853 44.9336C342.801 44.3346 342.775 43.7747 342.775 43.2539V19.3477H352.482V45.8711ZM370.27 50.5V19.3477H379.977V45.8711H385.993V50.5H370.27ZM396.711 42.8242L395.91 50.5H385.852L390.852 19.3477H407.609L412.609 50.5H402.512L401.75 42.8242H396.711ZM397.219 39.3281H401.242L399.211 23.918L397.219 39.3281ZM428.249 37.8242H423.64V50.5H413.933V19.3477H426.609C428.497 19.3477 430.085 19.4714 431.374 19.7188C432.676 19.9531 433.744 20.2852 434.577 20.7148C435.424 21.1315 436.075 21.6328 436.53 22.2188C436.986 22.8047 437.318 23.4492 437.527 24.1523C437.735 24.8555 437.859 25.6042 437.898 26.3984C437.937 27.1927 437.956 28 437.956 28.8203C437.956 29.5885 437.904 30.3372 437.8 31.0664C437.709 31.7826 437.514 32.4336 437.214 33.0195C436.915 33.6055 436.485 34.1068 435.925 34.5234C435.378 34.9401 434.655 35.2266 433.757 35.3828C434.174 35.4219 434.623 35.5391 435.105 35.7344C435.599 35.9167 436.055 36.2227 436.472 36.6523C436.902 37.069 437.253 37.6289 437.527 38.332C437.813 39.0352 437.956 39.9206 437.956 40.9883V50.5H428.249V37.8242ZM423.64 33.293H428.249V23.9766H423.64V33.293Z" fill="white"/>
<rect x="216" y="73" width="186" height="70" rx="12" fill="#3264E5"/>
<path d="M281.875 92.8477V124H272.168V110.562H266.582V124H256.875V92.8477H266.582V105.68H272.168V92.8477H281.875ZM306.245 92.8477V97.4766H299.487V124H289.78V97.4766H283.062V92.8477H306.245ZM324.678 124H317.569L313.565 106.109V124H306.143V92.8477H318.135L321.123 111.852L324.112 92.8477H336.104V124H328.682V106.109L324.678 124ZM341.822 124V92.8477H351.529V119.371H357.545V124H341.822Z" fill="white"/>
<rect x="135" y="147" width="78" height="70" rx="12" fill="#3264E5"/>
<path d="M160 166.848H169.707V190.754C169.707 191.275 169.661 191.835 169.57 192.434C169.492 193.033 169.316 193.632 169.043 194.23C168.783 194.816 168.392 195.383 167.871 195.93C167.35 196.477 166.654 196.958 165.781 197.375C164.922 197.792 163.854 198.124 162.578 198.371C161.302 198.632 159.766 198.762 157.969 198.762C155.964 198.762 154.264 198.632 152.871 198.371C151.478 198.124 150.326 197.792 149.414 197.375C148.503 196.958 147.793 196.477 147.285 195.93C146.79 195.383 146.419 194.816 146.172 194.23C145.938 193.632 145.794 193.033 145.742 192.434C145.703 191.835 145.684 191.275 145.684 190.754V186.223H155.391V193.371H160V166.848ZM182.554 175.969C182.554 176.385 182.756 176.717 183.159 176.965C183.576 177.212 184.116 177.434 184.78 177.629C185.458 177.811 186.226 177.993 187.085 178.176C187.945 178.358 188.817 178.592 189.702 178.879C190.601 179.152 191.48 179.51 192.339 179.953C193.198 180.383 193.96 180.949 194.624 181.652C195.301 182.342 195.842 183.195 196.245 184.211C196.662 185.227 196.87 186.451 196.87 187.883C196.87 188.911 196.844 189.895 196.792 190.832C196.74 191.77 196.597 192.642 196.362 193.449C196.128 194.243 195.764 194.966 195.269 195.617C194.774 196.268 194.077 196.828 193.179 197.297C192.293 197.753 191.174 198.104 189.82 198.352C188.465 198.599 186.812 198.723 184.859 198.723C183.127 198.723 181.61 198.632 180.308 198.449C179.019 198.28 177.912 198.013 176.987 197.648C176.063 197.284 175.301 196.822 174.702 196.262C174.116 195.689 173.648 195.018 173.296 194.25C172.958 193.482 172.723 192.603 172.593 191.613C172.463 190.624 172.398 189.523 172.398 188.312H182.554V193.371H187.163V187.59C187.163 187.212 186.955 186.9 186.538 186.652C186.135 186.405 185.594 186.184 184.917 185.988C184.253 185.78 183.491 185.578 182.632 185.383C181.773 185.188 180.894 184.953 179.995 184.68C179.11 184.406 178.237 184.074 177.378 183.684C176.519 183.293 175.751 182.811 175.073 182.238C174.409 181.652 173.869 180.956 173.452 180.148C173.049 179.328 172.847 178.352 172.847 177.219C172.847 175.812 172.918 174.562 173.062 173.469C173.205 172.362 173.452 171.398 173.804 170.578C174.155 169.758 174.631 169.068 175.23 168.508C175.829 167.935 176.577 167.473 177.476 167.121C178.387 166.77 179.461 166.516 180.698 166.359C181.948 166.203 183.4 166.125 185.054 166.125C187.424 166.125 189.37 166.281 190.894 166.594C192.43 166.906 193.641 167.427 194.527 168.156C195.412 168.885 196.024 169.842 196.362 171.027C196.701 172.212 196.87 173.664 196.87 175.383H187.163V171.477H182.554V175.969Z" fill="white"/>
<rect x="216" y="147" width="204" height="70" rx="12" fill="#3264E5"/>
<path d="M260.441 198L252.922 184.113V198H244.875V166.848H253.742L261.711 181.711V166.848H269.504V198H260.441ZM282.487 193.371H287.097V177.297H282.487V193.371ZM284.909 198.762C282.956 198.762 281.296 198.645 279.929 198.41C278.575 198.176 277.448 197.863 276.55 197.473C275.652 197.082 274.948 196.626 274.441 196.105C273.946 195.585 273.575 195.044 273.327 194.484C273.08 193.924 272.924 193.358 272.859 192.785C272.807 192.199 272.78 191.646 272.78 191.125V179.406C272.78 178.885 272.807 178.339 272.859 177.766C272.924 177.18 273.08 176.607 273.327 176.047C273.575 175.474 273.946 174.934 274.441 174.426C274.948 173.905 275.652 173.449 276.55 173.059C277.448 172.668 278.575 172.355 279.929 172.121C281.296 171.887 282.956 171.77 284.909 171.77C286.849 171.77 288.49 171.887 289.831 172.121C291.185 172.355 292.299 172.668 293.171 173.059C294.057 173.449 294.74 173.905 295.222 174.426C295.717 174.934 296.081 175.474 296.316 176.047C296.55 176.607 296.687 177.18 296.726 177.766C296.778 178.339 296.804 178.885 296.804 179.406V191.125C296.804 191.646 296.778 192.199 296.726 192.785C296.687 193.358 296.55 193.924 296.316 194.484C296.081 195.044 295.717 195.585 295.222 196.105C294.74 196.626 294.057 197.082 293.171 197.473C292.299 197.863 291.185 198.176 289.831 198.41C288.49 198.645 286.849 198.762 284.909 198.762ZM320.705 164.602V198H312.678L311.78 194.738C311.389 195.389 310.914 195.969 310.354 196.477C309.807 196.971 309.202 197.388 308.537 197.727C307.873 198.052 307.17 198.299 306.428 198.469C305.686 198.638 304.924 198.723 304.143 198.723C303.205 198.723 302.287 198.56 301.389 198.234C300.491 197.909 299.69 197.414 298.987 196.75C298.297 196.073 297.737 195.227 297.307 194.211C296.89 193.195 296.682 192.004 296.682 190.637V179.348C296.682 178.046 296.89 176.919 297.307 175.969C297.724 175.005 298.271 174.211 298.948 173.586C299.638 172.961 300.419 172.499 301.291 172.199C302.177 171.9 303.082 171.75 304.006 171.75C305.399 171.75 306.702 171.991 307.912 172.473C309.136 172.954 310.165 173.658 310.998 174.582V164.602H320.705ZM310.998 177.297H306.389V193.371H310.998V177.297ZM344.861 189.191C344.861 190.116 344.828 190.995 344.763 191.828C344.698 192.648 344.535 193.417 344.275 194.133C344.028 194.836 343.643 195.467 343.123 196.027C342.615 196.587 341.912 197.069 341.013 197.473C340.128 197.863 339.015 198.163 337.673 198.371C336.345 198.592 334.724 198.703 332.81 198.703C330.857 198.703 329.203 198.586 327.849 198.352C326.508 198.117 325.395 197.805 324.509 197.414C323.624 197.023 322.934 196.574 322.439 196.066C321.944 195.546 321.58 195.005 321.345 194.445C321.111 193.872 320.968 193.299 320.916 192.727C320.877 192.154 320.857 191.607 320.857 191.086V179.367C320.857 178.846 320.877 178.299 320.916 177.727C320.968 177.154 321.111 176.587 321.345 176.027C321.58 175.467 321.944 174.934 322.439 174.426C322.934 173.905 323.624 173.449 324.509 173.059C325.395 172.668 326.508 172.355 327.849 172.121C329.203 171.887 330.857 171.77 332.81 171.77C334.711 171.77 336.332 171.887 337.673 172.121C339.015 172.355 340.128 172.668 341.013 173.059C341.912 173.449 342.615 173.905 343.123 174.426C343.643 174.934 344.034 175.467 344.295 176.027C344.555 176.587 344.718 177.16 344.783 177.746C344.848 178.319 344.88 178.859 344.88 179.367V186.691H330.564V193.371H335.173V189.211L344.861 189.191ZM330.564 183.215H335.173V177.297H330.564V183.215ZM353.802 198H344.856V188.879H353.802V198ZM353.758 172.609H363.465V196.164C363.465 197.453 363.257 198.605 362.84 199.621C362.436 200.65 361.857 201.522 361.102 202.238C360.359 202.967 359.461 203.521 358.406 203.898C357.365 204.289 356.212 204.484 354.949 204.484C354.168 204.484 353.361 204.406 352.527 204.25C351.681 204.107 350.809 203.879 349.91 203.566V199.289H353.758V172.609ZM363.465 164.602V169.23H353.758V164.602H363.465ZM379.183 189.328C379.079 189.211 378.792 189.12 378.323 189.055C377.855 188.99 377.275 188.918 376.585 188.84C375.895 188.749 375.127 188.638 374.28 188.508C373.434 188.378 372.575 188.189 371.702 187.941C370.83 187.694 369.984 187.375 369.163 186.984C368.343 186.594 367.614 186.099 366.976 185.5C366.338 184.901 365.823 184.185 365.433 183.352C365.055 182.518 364.866 181.529 364.866 180.383C364.866 179.549 364.932 178.762 365.062 178.02C365.192 177.264 365.42 176.568 365.745 175.93C366.084 175.292 366.546 174.719 367.132 174.211C367.718 173.69 368.467 173.254 369.378 172.902C370.29 172.538 371.383 172.258 372.659 172.062C373.935 171.867 375.439 171.77 377.171 171.77C378.903 171.796 380.381 171.893 381.605 172.062C382.829 172.232 383.851 172.46 384.671 172.746C385.504 173.033 386.162 173.384 386.644 173.801C387.139 174.217 387.51 174.686 387.757 175.207C388.017 175.728 388.18 176.307 388.245 176.945C388.323 177.57 388.363 178.241 388.363 178.957V180.637L379.183 180.051V177.297H374.573V181.066C374.691 181.184 374.984 181.281 375.452 181.359C375.934 181.438 376.52 181.529 377.21 181.633C377.9 181.724 378.668 181.841 379.515 181.984C380.361 182.128 381.214 182.323 382.073 182.57C382.946 182.818 383.786 183.13 384.593 183.508C385.413 183.885 386.142 184.361 386.78 184.934C387.418 185.507 387.926 186.19 388.304 186.984C388.695 187.779 388.89 188.71 388.89 189.777C388.89 191.249 388.721 192.544 388.382 193.664C388.057 194.771 387.445 195.702 386.546 196.457C385.648 197.199 384.404 197.759 382.816 198.137C381.227 198.514 379.176 198.703 376.663 198.703C374.971 198.664 373.512 198.553 372.288 198.371C371.077 198.202 370.055 197.967 369.222 197.668C368.389 197.368 367.724 197.01 367.23 196.594C366.735 196.164 366.357 195.689 366.097 195.168C365.836 194.647 365.661 194.074 365.57 193.449C365.491 192.824 365.452 192.16 365.452 191.457V189.934L374.573 190.617V193.371H379.183V189.328Z" fill="white"/>
<rect y="73" width="212" height="70" rx="12" fill="#3532E5"/>
<path d="M47.2617 92.8477L49.5859 119.625L51.9102 92.8477H62.9844L57.9844 124H41.2266L36.2266 92.8477H47.2617ZM75.1477 119.371H79.757V92.8477H89.4641V116.754C89.4641 117.275 89.4315 117.835 89.3664 118.434C89.3013 119.033 89.1385 119.632 88.8781 120.23C88.6177 120.816 88.2271 121.383 87.7062 121.93C87.1854 122.477 86.4758 122.958 85.5773 123.375C84.6789 123.792 83.5591 124.124 82.218 124.371C80.8768 124.632 79.2492 124.762 77.3352 124.762C75.4471 124.762 73.8391 124.632 72.5109 124.371C71.1828 124.124 70.076 123.792 69.1906 123.375C68.3182 122.958 67.6281 122.477 67.1203 121.93C66.6255 121.383 66.2479 120.816 65.9875 120.23C65.7401 119.632 65.5839 119.033 65.5187 118.434C65.4667 117.835 65.4406 117.275 65.4406 116.754V92.8477H75.1477V119.371ZM108.678 92.8477V97.4766H102.643V105.23H108.268V110.113H102.643V119.371H108.678V124H92.9359V92.8477H108.678ZM119.65 124H110.705V114.879H119.65V124ZM132.458 92.8477H142.165V116.754C142.165 117.275 142.119 117.835 142.028 118.434C141.95 119.033 141.774 119.632 141.501 120.23C141.24 120.816 140.85 121.383 140.329 121.93C139.808 122.477 139.111 122.958 138.239 123.375C137.38 123.792 136.312 124.124 135.036 124.371C133.76 124.632 132.223 124.762 130.427 124.762C128.421 124.762 126.722 124.632 125.329 124.371C123.936 124.124 122.783 123.792 121.872 123.375C120.96 122.958 120.251 122.477 119.743 121.93C119.248 121.383 118.877 120.816 118.63 120.23C118.395 119.632 118.252 119.033 118.2 118.434C118.161 117.835 118.141 117.275 118.141 116.754V112.223H127.848V119.371H132.458V92.8477ZM155.012 101.969C155.012 102.385 155.214 102.717 155.617 102.965C156.034 103.212 156.574 103.434 157.238 103.629C157.915 103.811 158.684 103.993 159.543 104.176C160.402 104.358 161.275 104.592 162.16 104.879C163.059 105.152 163.938 105.51 164.797 105.953C165.656 106.383 166.418 106.949 167.082 107.652C167.759 108.342 168.299 109.195 168.703 110.211C169.12 111.227 169.328 112.451 169.328 113.883C169.328 114.911 169.302 115.895 169.25 116.832C169.198 117.77 169.055 118.642 168.82 119.449C168.586 120.243 168.221 120.966 167.727 121.617C167.232 122.268 166.535 122.828 165.637 123.297C164.751 123.753 163.632 124.104 162.277 124.352C160.923 124.599 159.27 124.723 157.316 124.723C155.585 124.723 154.068 124.632 152.766 124.449C151.477 124.28 150.37 124.013 149.445 123.648C148.521 123.284 147.759 122.822 147.16 122.262C146.574 121.689 146.105 121.018 145.754 120.25C145.415 119.482 145.181 118.603 145.051 117.613C144.921 116.624 144.855 115.523 144.855 114.312H155.012V119.371H159.621V113.59C159.621 113.212 159.413 112.9 158.996 112.652C158.592 112.405 158.052 112.184 157.375 111.988C156.711 111.78 155.949 111.578 155.09 111.383C154.23 111.188 153.352 110.953 152.453 110.68C151.568 110.406 150.695 110.074 149.836 109.684C148.977 109.293 148.208 108.811 147.531 108.238C146.867 107.652 146.327 106.956 145.91 106.148C145.507 105.328 145.305 104.352 145.305 103.219C145.305 101.812 145.376 100.562 145.52 99.4688C145.663 98.362 145.91 97.3984 146.262 96.5781C146.613 95.7578 147.089 95.0677 147.688 94.5078C148.286 93.9349 149.035 93.4727 149.934 93.1211C150.845 92.7695 151.919 92.5156 153.156 92.3594C154.406 92.2031 155.858 92.125 157.512 92.125C159.882 92.125 161.828 92.2812 163.352 92.5938C164.888 92.9062 166.099 93.4271 166.984 94.1562C167.87 94.8854 168.482 95.8424 168.82 97.0273C169.159 98.2122 169.328 99.6641 169.328 101.383H159.621V97.4766H155.012V101.969Z" fill="white"/>
</svg>
